<svg xmlns="http://www.w3.org/2000/svg" version="1.1" xmlns:xlink="http://www.w3.org/1999/xlink" xmlns:svgjs="http://svgjs.dev/svgjs" width="1500" height="1500" viewBox="0 0 1500 1500"><rect width="1500" height="1500" fill="#ffffff"></rect><g transform="matrix(0.6666666666666666,0,0,0.6666666666666666,249.39393939393938,625.7435795257973)"><svg viewBox="0 0 396 98" data-background-color="#ffffff" preserveAspectRatio="xMidYMid meet" height="371" width="1500" xmlns="http://www.w3.org/2000/svg" xmlns:xlink="http://www.w3.org/1999/xlink"><g id="tight-bounds" transform="matrix(1,0,0,1,0.2400000000000091,0.23367603694831018)"><svg viewBox="0 0 395.52 97.53264792610337" height="97.53264792610337" width="395.52"><g><svg viewBox="0 0 671.5702803639259 165.60484352844185" height="97.53264792610337" width="395.52"><g><rect width="10.806378938924318" height="143.79581203627367" x="423.80895010189613" y="10.904515746084087" fill="#50a060" opacity="1" stroke-width="0" stroke="transparent" fill-opacity="1" class="rect-qz-0" data-fill-palette-color="primary" rx="1%" id="qz-0" data-palette-color="#50a060"></rect></g><g transform="matrix(1,0,0,1,0,22.887500082440226)"><svg viewBox="0 0 395.52 119.8298433635614" height="119.8298433635614" width="395.52"><g id="textblocktransform"><svg viewBox="0 0 395.52 119.8298433635614" height="119.8298433635614" width="395.52" id="textblock"><g><svg viewBox="0 0 395.52 119.8298433635614" height="119.8298433635614" width="395.52"><g transform="matrix(1,0,0,1,0,0)"><svg width="395.52" viewBox="2.1 -36.15 121.29 36.75" height="119.8298433635614" data-palette-color="#50a060"><path d="M12.05 0.6Q7.05 0.6 4.58-2.68 2.1-5.95 2.1-13.15L2.1-13.15Q2.1-20.2 4.55-23.55 7-26.9 12-26.9L12-26.9Q16.4-26.9 18.53-23.98 20.65-21.05 20.65-14.55L20.65-14.55 20.65-11.95 6.4-11.95Q6.45-7.35 7.83-5.2 9.2-3.05 12.15-3.05L12.15-3.05Q14.15-3.05 15.38-4.65 16.6-6.25 16.6-8.95L16.6-8.95 20.65-8.95Q20.65-4.55 18.28-1.98 15.9 0.6 12.05 0.6L12.05 0.6ZM6.45-15.6L16.35-15.6Q16.35-19.35 15.25-21.3 14.15-23.25 12-23.25L12-23.25Q9.35-23.25 8.03-21.38 6.7-19.5 6.45-15.6L6.45-15.6ZM31.4 0.6Q28.7 0.6 26.6-1 24.5-2.6 24.5-6.8L24.5-6.8Q24.5-11.85 27.92-13.73 31.35-15.6 37.8-15.6L37.8-15.6 37.8-19Q37.8-21.05 36.9-22.15 36-23.25 33.65-23.25L33.65-23.25Q31.5-23.25 30.55-22.05 29.6-20.85 29.6-19.1L29.6-19.1 29.6-18.5 25.55-18.5Q25.5-18.8 25.5-19.6L25.5-19.6Q25.5-23.1 27.8-25 30.1-26.9 33.95-26.9L33.95-26.9Q37.9-26.9 39.9-25 41.9-23.1 41.9-19.55L41.9-19.55 41.9-4.8Q41.9-3.95 42.3-3.5 42.7-3.05 43.3-3.05L43.3-3.05 44.9-3.05 44.9-0.2Q43.8 0.4 42.2 0.4L42.2 0.4Q40.6 0.4 39.52-0.48 38.45-1.35 38.05-2.85L38.05-2.85 37.8-2.85Q36.8-1.2 35.12-0.3 33.45 0.6 31.4 0.6L31.4 0.6ZM32.35-3.05Q33.7-3.05 34.95-3.8 36.2-4.55 37-6.03 37.8-7.5 37.8-9.55L37.8-9.55 37.8-11.95Q33.3-11.95 31.05-10.93 28.8-9.9 28.8-7.05L28.8-7.05Q28.8-4.9 29.67-3.98 30.55-3.05 32.35-3.05L32.35-3.05ZM53.24 0.5Q50.74 0.5 49.64-1.23 48.55-2.95 48.55-5.55L48.55-5.55 48.55-22.65 46.3-22.65 46.3-26.3 48.55-26.3 49.45-33.6 52.64-33.6 52.64-26.3 56.2-26.3 56.2-22.65 52.64-22.65 52.64-5.45Q52.64-3.05 54.99-3.05L54.99-3.05 56.2-3.05 56.2-0.2Q55.64 0.1 54.82 0.3 53.99 0.5 53.24 0.5L53.24 0.5ZM59.99 0L59.99-36.15 64.09-36.15 64.09-23.55 64.39-23.55Q66.29-26.9 70.29-26.9L70.29-26.9Q73.44-26.9 75.12-25.03 76.79-23.15 76.79-18.95L76.79-18.95 76.79 0 72.69 0 72.69-18.65Q72.69-21.2 71.74-22.23 70.79-23.25 68.99-23.25L68.99-23.25Q66.94-23.25 65.52-21.3 64.09-19.35 64.09-16.05L64.09-16.05 64.09 0 59.99 0ZM89.29 0.6Q86.14 0.6 84.47-1.28 82.79-3.15 82.79-7.35L82.79-7.35 82.79-26.3 86.89-26.3 86.89-7.65Q86.89-5.1 87.84-4.08 88.79-3.05 90.59-3.05L90.59-3.05Q92.64-3.05 94.07-5 95.49-6.95 95.49-10.25L95.49-10.25 95.49-26.3 99.59-26.3 99.59 0 96.49 0 95.94-3.05 95.64-3.05Q93.59 0.6 89.29 0.6L89.29 0.6ZM115.24 0.6Q113.44 0.6 111.94-0.33 110.44-1.25 109.49-3.05L109.49-3.05 109.24-3.05 108.69 0 105.59 0 105.59-36.15 109.69-36.15 109.69-23.8 109.94-23.8Q110.59-25.25 112.09-26.08 113.59-26.9 115.54-26.9L115.54-26.9Q119.04-26.9 121.21-23.45 123.39-20 123.39-13.2L123.39-13.2Q123.39-6.2 121.26-2.8 119.14 0.6 115.24 0.6L115.24 0.6ZM114.39-3.05Q116.79-3.05 117.94-5.2 119.09-7.35 119.09-12.2L119.09-12.2 119.09-14.1Q119.09-18.95 117.94-21.1 116.79-23.25 114.39-23.25L114.39-23.25Q109.69-23.25 109.69-13.9L109.69-13.9 109.69-12.2Q109.69-3.05 114.39-3.05L114.39-3.05Z" opacity="1" transform="matrix(1,0,0,1,0,0)" fill="#50a060" class="wordmark-text-0" data-fill-palette-color="primary" id="text-0"></path></svg></g></svg></g></svg></g></svg></g><g transform="matrix(1,0,0,1,462.9042791427165,0)"><svg viewBox="0 0 208.66600122120937 165.60484352844185" height="165.60484352844185" width="208.66600122120937"><g><svg xmlns="http://www.w3.org/2000/svg" xmlns:xlink="http://www.w3.org/1999/xlink" version="1.1" x="0" y="0" viewBox="2.5 12.3 95.00577493300821 75.4" enable-background="new 0 0 100 100" xml:space="preserve" height="165.60484352844185" width="208.66600122120937" class="icon-icon-0" data-fill-palette-color="accent" id="icon-0"><path d="M84.1 32.5c4 0.6 7.4 2.5 9.9 5.7 2.4 3 3.6 6.5 3.5 10.3-0.1 2.7-0.4 5.4-1.1 8-1.6 5.8-4.6 10.9-9 14.9-2.7 2.4-5.9 3.2-9.5 2.7-1.5-0.2-2.9-0.7-4.4-1.1-0.3-0.1-0.6-0.1-0.9 0-1.1 0.3-2.2 0.6-3.3 0.8-3.8 0.9-7.2 0.2-10.3-2.3-1.2-0.9-2.1-2-3.1-3.2-2.9-3.4-4.9-7.3-6.2-11.6-0.7-2.3-1.1-4.7-1.2-7.1-0.1-1.5-0.1-2.9 0.1-4.4 0.6-3.7 2.3-6.8 5.1-9.2 3.5-3.1 7.7-4.2 12.3-3.9 1.7 0.1 3.4 0.4 5.1 0.8 0.3 0.1 0.4 0 0.4-0.3 0-0.6-0.1-1.3-0.2-1.9-0.6-2.5-2-4.5-4.3-5.8-0.5-0.3-0.5-0.3-0.2-0.8 0.3-0.6 0.6-1.2 0.9-1.8 0.1-0.3 0.3-0.3 0.5-0.2 0.4 0.3 0.8 0.5 1.2 0.8 1.6 1.1 2.8 2.5 3.7 4.2 0.2 0.3 0.2 0.3 0.4 0 0.3-0.5 0.7-0.9 1.1-1.3 2.5-2.6 5.6-3.9 9.2-4 2.1-0.1 4 0.6 6 1.3 0.2 0.1 0.2 0.2 0.1 0.4-1 1.5-2 2.9-3.4 4.1-2.3 1.9-5 3-8.1 3.1-1.4 0-2.7-0.2-4-0.6-0.2-0.1-0.3-0.1-0.3 0.2 0.2 0.8 0.3 1.6 0.2 2.3 0 0.2 0.1 0.2 0.3 0.2 2.2-0.6 4.5-0.9 7.2-0.9C82.4 32.3 83.2 32.4 84.1 32.5zM62.8 38.2c-2.3 0.3-4.2 1.3-5.8 3-1.7 1.8-2.6 3.9-2.7 6.4 0 0.6 0.1 1.2 0.6 1.6 0.5 0.4 1 0.4 1.6 0.1 0.5-0.3 0.8-0.7 0.8-1.3 0-0.8 0.1-1.5 0.4-2.2 1-2.8 3.5-4.6 6.6-4.7 0.8 0 1.3-0.5 1.4-1.2 0.1-0.8-0.3-1.5-1-1.7-0.3-0.1-0.5 0-0.8-0.1C63.5 38.1 63.2 38.2 62.8 38.2zM37 72.2v-0.4c0-2.5-2-4.5-4.5-4.5H7c-2.5 0-4.5 2-4.5 4.5v0.4c0 2.5 2 4.5 4.5 4.5h25.6C35 76.6 37 74.7 37 72.2zM31.2 83.2v-0.4c0-2.5-2-4.5-4.5-4.5h-14c-2.5 0-4.5 2-4.5 4.5v0.4c0 2.5 2 4.5 4.5 4.5h14C29.2 87.7 31.2 85.7 31.2 83.2zM2.5 27.8v0.4c0 2.5 2 4.5 4.5 4.5h25.6c2.5 0 4.5-2 4.5-4.5v-0.4c0-2.5-2-4.5-4.5-4.5H7C4.5 23.4 2.5 25.3 2.5 27.8zM8.3 16.8v0.4c0 2.5 2 4.5 4.5 4.5h14c2.5 0 4.5-2 4.5-4.5v-0.4c0-2.5-2-4.5-4.5-4.5h-14C10.3 12.3 8.3 14.3 8.3 16.8zM24.2 61.1V38.9c0-2.2-1.8-4-4-4h-0.9c-2.2 0-4 1.8-4 4v22.1c0 2.2 1.8 4 4 4h0.9C22.4 65.1 24.2 63.3 24.2 61.1z" fill="#50a060" data-fill-palette-color="accent"></path></svg></g></svg></g></svg></g><defs></defs></svg><rect width="395.52" height="97.53264792610337" fill="none" stroke="none" visibility="hidden"></rect></g></svg></g></svg>